# xmcd
#
# Track frame offsets: 
#        150
#        17940
#        31490
#        52195
#        69905
#        89410
#        108195
#        127042
#        143615
#        168357
#
# Disc length: 2530 seconds
#
# Revision: 0
# Processed by: cddbd v1.5.2PL0 Copyright (c) Steve Scherf et al.
# Submitted via: ExactAudioCopy v0.95b4
#
DISCID=8609e00a
DTITLE=Maureen Still - A Little Bit of Faith
DYEAR=1999
DGENRE=Christian Country
TTITLE0=A Little Bit of Faith (Hannah's Song)
TTITLE1=Holy Spirit
TTITLE2=Responsibility (It's O.K.)
TTITLE3=Fisher of Men
TTITLE4=They'll Know We Are Christians
TTITLE5=I'm My Father's Child
TTITLE6=I Know
TTITLE7=Fading Away
TTITLE8=Get Off This Hill
TTITLE9=In Your Name
EXTD=
EXTT0=
EXTT1=
EXTT2=
EXTT3=
EXTT4=
EXTT5=
EXTT6=
EXTT7=
EXTT8=
EXTT9=
PLAYORDER=
